<svg aria-hidden="true" style="position: absolute; width: 0; height: 0; overflow: hidden;" version="1.1" xmlns="http://www.w3.org/2000/svg" xmlns:xlink="http://www.w3.org/1999/xlink">
<defs>
<symbol id="icon-place" viewBox="0 0 75 32">
<path fill="#f4f4fd" style="fill: var(--color1, #f4f4fd)" d="M1.143 0h73.143c0.631 0 1.143 0.512 1.143 1.143v29.714c0 0.631-0.512 1.143-1.143 1.143h-73.143c-0.631 0-1.143-0.512-1.143-1.143v-29.714c0-0.631 0.512-1.143 1.143-1.143z"></path>
<path fill="#212121" style="fill: var(--color2, #212121)" d="M37.714 8.381c-2.949 0-5.333 2.385-5.333 5.333 0 4 5.333 9.905 5.333 9.905s5.333-5.905 5.333-9.905c0-2.949-2.385-5.333-5.333-5.333zM37.714 15.619c-0.505 0-0.99-0.201-1.347-0.558s-0.558-0.842-0.558-1.347c0-0.505 0.201-0.99 0.558-1.347s0.842-0.558 1.347-0.558c0.505 0 0.99 0.201 1.347 0.558s0.558 0.842 0.558 1.347c0 0.505-0.201 0.99-0.558 1.347s-0.842 0.558-1.347 0.558z"></path>
</symbol>
<symbol id="icon-people" viewBox="0 0 75 32">
<path fill="#f4f4fd" style="fill: var(--color1, #f4f4fd)" d="M1.143 0h73.143c0.631 0 1.143 0.512 1.143 1.143v29.714c0 0.631-0.512 1.143-1.143 1.143h-73.143c-0.631 0-1.143-0.512-1.143-1.143v-29.714c0-0.631 0.512-1.143 1.143-1.143z"></path>
<path fill="#212121" style="fill: var(--color2, #212121)" d="M34 16c1.42 0 2.571-1.151 2.571-2.571s-1.151-2.571-2.571-2.571c-1.42 0-2.571 1.151-2.571 2.571s1.151 2.571 2.571 2.571z"></path>
<path fill="#212121" style="fill: var(--color2, #212121)" d="M36.929 17.429c-1.006-0.511-2.116-0.714-2.929-0.714-1.592 0-4.857 0.976-4.857 2.929v1.5h5.357v-0.574c0-0.679 0.286-1.359 0.786-1.926 0.399-0.453 0.957-0.873 1.643-1.214z"></path>
<path fill="#212121" style="fill: var(--color2, #212121)" d="M40.714 17.143c-1.86 0-5.571 1.149-5.571 3.429v1.714h11.143v-1.714c0-2.28-3.712-3.429-5.571-3.429z"></path>
<path fill="#212121" style="fill: var(--color2, #212121)" d="M40.714 16c1.736 0 3.143-1.407 3.143-3.143s-1.407-3.143-3.143-3.143c-1.736 0-3.143 1.407-3.143 3.143s1.407 3.143 3.143 3.143z"></path>
</symbol>
<symbol id="icon-speak" viewBox="0 0 75 32">
<path fill="#f4f4fd" style="fill: var(--color1, #f4f4fd)" d="M1.143 0h73.143c0.631 0 1.143 0.512 1.143 1.143v29.714c0 0.631-0.512 1.143-1.143 1.143h-73.143c-0.631 0-1.143-0.512-1.143-1.143v-29.714c0-0.631 0.512-1.143 1.143-1.143z"></path>
<path fill="#212121" style="fill: var(--color2, #212121)" d="M35.429 10.667c0.808 0 1.583 0.321 2.155 0.893s0.893 1.347 0.893 2.155-0.321 1.583-0.893 2.155c-0.571 0.572-1.347 0.893-2.155 0.893s-1.583-0.321-2.155-0.893c-0.572-0.572-0.893-1.347-0.893-2.155s0.321-1.583 0.893-2.155c0.571-0.572 1.347-0.893 2.155-0.893zM35.429 18.286c2.034 0 6.095 1.021 6.095 3.048v1.524h-12.19v-1.524c0-2.027 4.061-3.048 6.095-3.048zM41.341 10.941c1.539 1.676 1.539 4 0 5.539l-1.28-1.288c0.64-0.899 0.64-2.065 0-2.964l1.28-1.288zM43.863 8.381c2.994 3.086 2.971 7.703 0 10.667l-1.242-1.242c2.111-2.423 2.111-5.882 0-8.183l1.242-1.242z"></path>
</symbol>
<symbol id="icon-euro" viewBox="0 0 75 32">
<path fill="#f4f4fd" style="fill: var(--color1, #f4f4fd)" d="M1.143 0h73.143c0.631 0 1.143 0.512 1.143 1.143v29.714c0 0.631-0.512 1.143-1.143 1.143h-73.143c-0.631 0-1.143-0.512-1.143-1.143v-29.714c0-0.631 0.512-1.143 1.143-1.143z"></path>
<path fill="#212121" style="fill: var(--color2, #212121)" d="M38.806 21.663c-1.499 0-2.832-0.425-4-1.276s-1.994-1.949-2.476-3.295h-2.667v-1.524h2.324c-0.025-0.14-0.038-0.267-0.038-0.381v-0.762c0-0.114 0.013-0.241 0.038-0.381h-2.324v-1.524h2.667c0.483-1.346 1.308-2.444 2.476-3.295s2.501-1.276 4-1.276c0.876 0 1.705 0.152 2.486 0.457s1.476 0.736 2.085 1.295l-1.333 1.333c-0.444-0.368-0.943-0.657-1.495-0.866s-1.134-0.314-1.743-0.315c-0.952 0-1.819 0.245-2.6 0.734s-1.375 1.133-1.781 1.933h4.381v1.524h-4.876c-0.025 0.14-0.044 0.267-0.057 0.381s-0.019 0.241-0.019 0.381 0.006 0.267 0.019 0.381c0.013 0.114 0.032 0.241 0.057 0.381h4.876v1.524h-4.381c0.406 0.8 1 1.445 1.781 1.934s1.647 0.733 2.6 0.733c0.609 0 1.197-0.105 1.762-0.315s1.057-0.499 1.476-0.866l1.333 1.333c-0.609 0.559-1.305 0.99-2.086 1.295s-1.61 0.457-2.485 0.457z"></path>
</symbol>
</defs>
</svg>