<svg aria-hidden="true" style="position: absolute; width: 0; height: 0; overflow: hidden;" version="1.1" xmlns="http://www.w3.org/2000/svg" xmlns:xlink="http://www.w3.org/1999/xlink">
<defs>
<symbol id="icon-speak" viewBox="0 0 32 32">
<path d="M12 6.667c1.415 0 2.771 0.562 3.771 1.562s1.562 2.357 1.562 3.771-0.562 2.771-1.562 3.771c-1 1-2.357 1.562-3.771 1.562s-2.771-0.562-3.771-1.562c-1-1-1.562-2.357-1.562-3.771s0.562-2.771 1.562-3.771c1-1 2.357-1.562 3.771-1.562zM12 20c3.56 0 10.667 1.787 10.667 5.333v2.667h-21.333v-2.667c0-3.547 7.107-5.333 10.667-5.333zM22.347 7.147c2.693 2.933 2.693 7 0 9.693l-2.24-2.253c1.12-1.573 1.12-3.613 0-5.187l2.24-2.253zM26.76 2.667c5.24 5.4 5.2 13.48 0 18.667l-2.173-2.173c3.693-4.24 3.693-10.293 0-14.32l2.173-2.173z"></path>
</symbol>
<symbol id="icon-place" viewBox="0 0 32 32">
<path d="M16 2.667c-5.16 0-9.333 4.173-9.333 9.333 0 7 9.333 17.333 9.333 17.333s9.333-10.333 9.333-17.333c0-5.16-4.173-9.333-9.333-9.333zM16 15.333c-0.884 0-1.732-0.351-2.357-0.976s-0.976-1.473-0.976-2.357 0.351-1.732 0.976-2.357c0.625-0.625 1.473-0.976 2.357-0.976s1.732 0.351 2.357 0.976c0.625 0.625 0.976 1.473 0.976 2.357s-0.351 1.732-0.976 2.357c-0.625 0.625-1.473 0.976-2.357 0.976z"></path>
</symbol>
<symbol id="icon-people" viewBox="0 0 32 32">
<path d="M9.5 16c2.485 0 4.5-2.015 4.5-4.5s-2.015-4.5-4.5-4.5c-2.485 0-4.5 2.015-4.5 4.5s2.015 4.5 4.5 4.5z"></path>
<path d="M14.625 18.5c-1.76-0.894-3.703-1.25-5.125-1.25-2.786 0-8.5 1.709-8.5 5.125v2.625h9.375v-1.004c0-1.188 0.5-2.378 1.375-3.371 0.698-0.793 1.676-1.528 2.875-2.125z"></path>
<path d="M21.25 18c-3.254 0-9.75 2.010-9.75 6v3h19.5v-3c0-3.99-6.496-6-9.75-6z"></path>
<path d="M21.25 16c3.038 0 5.5-2.462 5.5-5.5s-2.462-5.5-5.5-5.5c-3.038 0-5.5 2.462-5.5 5.5s2.462 5.5 5.5 5.5z"></path>
</symbol>
<symbol id="icon-euro" viewBox="0 0 32 32">
<path d="M17.91 25.91c-2.622 0-4.956-0.744-7-2.233s-3.489-3.411-4.333-5.767h-4.667v-2.667h4.067c-0.044-0.244-0.067-0.467-0.067-0.667v-1.333c0-0.2 0.022-0.422 0.067-0.667h-4.067v-2.667h4.667c0.844-2.356 2.289-4.278 4.333-5.767s4.378-2.233 7-2.233c1.533 0 2.984 0.267 4.351 0.8s2.584 1.289 3.649 2.267l-2.333 2.333c-0.778-0.644-1.65-1.15-2.617-1.516s-1.984-0.55-3.049-0.551c-1.667 0-3.184 0.428-4.551 1.284s-2.406 1.984-3.116 3.383h7.667v2.667h-8.533c-0.044 0.244-0.078 0.467-0.1 0.667s-0.033 0.422-0.033 0.667 0.011 0.467 0.033 0.667c0.022 0.2 0.056 0.422 0.1 0.667h8.533v2.667h-7.667c0.711 1.4 1.75 2.528 3.116 3.384s2.883 1.284 4.551 1.283c1.067 0 2.095-0.184 3.084-0.551s1.85-0.872 2.583-1.516l2.333 2.333c-1.067 0.978-2.284 1.733-3.651 2.267s-2.817 0.8-4.349 0.8z"></path>
</symbol>
</defs>
</svg>
