<svg aria-hidden="true" style="position: absolute; width: 0; height: 0; overflow: hidden;" version="1.1" xmlns="http://www.w3.org/2000/svg" xmlns:xlink="http://www.w3.org/1999/xlink">
<defs>
<symbol id="icon-close" viewBox="0 0 32 32">
<path fill="#2e2f42" style="fill: var(--color1, #2e2f42)" d="M21.333 11.741l-1.074-1.074-4.259 4.259-4.259-4.259-1.074 1.074 4.259 4.259-4.259 4.259 1.074 1.074 4.259-4.259 4.259 4.259 1.074-1.074-4.259-4.259 4.259-4.259z"></path>
<path fill="#e7e9fc" style="fill: var(--color2, #e7e9fc); stroke: var(--color1, #2e2f42)" opacity="0.1" stroke="#2e2f42" stroke-linejoin="miter" stroke-linecap="butt" stroke-miterlimit="4" stroke-width="1.3333" d="M31.333 16c0 8.468-6.865 15.333-15.333 15.333s-15.333-6.865-15.333-15.333c0-8.468 6.865-15.333 15.333-15.333s15.333 6.865 15.333 15.333z"></path>
</symbol>
<symbol id="icon-icon-send" viewBox="0 0 35 32">
<path fill="#fff" style="fill: var(--color1, #fff)" d="M34.434 0l-33.571 18 10.729 3.788 16.548-14.788-12.587 16.186 0.010 0.004-0.013-0.004v8.814l6.017-6.691 7.622 2.691 5.245-28z"></path>
</symbol>
</defs>
</svg>
